# xmcd
# 
# Track frame offsets:
#     150
#     10400
#     20540
#     33727
#     45198
#     58574
#     69461
#     85784
#     96833
#     113243
#     130850
#     144548
#     155868
#     171396
# 
# Disc length: 2482
# 
# Revision: 0
# Processed by: cddbd v1.5.2PL0 Copyright (c) Steve Scherf et al.
# Submitted via: fre:ac v1.0.17
# 
DISCID=bd09b00e
DTITLE=Brook Benton - Love Album
DYEAR=0
DGENRE=Blues
TTITLE0=Lie To Me
TTITLE1=Fools Rush In
TTITLE2=Baby, You´ve Got What It Takes
TTITLE3=Thank You Pretty Baby
TTITLE4=We Need What We Need
TTITLE5=It´s Just A Hause Without You
TTITLE6=Trust Me To Do What You Want
TTITLE7=Endlessly
TTITLE8=Glow Love
TTITLE9=Love Is Best Of All
TTITLE10=A Lovers Question
TTITLE11=My True Confession
TTITLE12=Makin´ Love Is Good For You
TTITLE13=Sunshine
EXTD=7619943780301
EXTT0=
EXTT1=
EXTT2=
EXTT3=
EXTT4=
EXTT5=
EXTT6=
EXTT7=
EXTT8=
EXTT9=
EXTT10=
EXTT11=
EXTT12=
EXTT13=
PLAYORDER=
